PathFileType	4	(X/Y/Z)	D:\MotionData\Pi-Spi Study\20230118_AMCsubject1\Trimmed_right_horiz_abd01_rotated.trc
DataRate	CameraRate	NumFrames	NumMarkers	Units	OrigDataRate	OrigDataStartFrame	OrigNumFrames
200.00	200.00	       10	35	mm	200.00	26	       200
Frame#	Time	C7			Sternum			r_AMC1			r_AMC2			r_AMC3			l_AMC1			l_AMC2			l_AMC3			PX			T8			r_humerous			r_elbow_medial			r_elbow_lateral			r_forearm			r_wrist_radius			r_wrist_ulna			r_MCP_1			r_MCP_3			l_humerous			l_elbow_medial			l_elbow_lateral			l_forearm			l_wrist_radius			l_wrist_ulna			l_MCP_1			l_MCP_3			r_ASIS			r_PSIS			l_ASIS			l_PSIS			r_IC			l_IC			TS			AI			AA			
		X1	Y1	Z1	X2	Y2	Z2	X3	Y3	Z3	X4	Y4	Z4	X5	Y5	Z5	X6	Y6	Z6	X7	Y7	Z7	X8	Y8	Z8	X9	Y9	Z9	X10	Y10	Z10	X11	Y11	Z11	X12	Y12	Z12	X13	Y13	Z13	X14	Y14	Z14	X15	Y15	Z15	X16	Y16	Z16	X17	Y17	Z17	X18	Y18	Z18	X19	Y19	Z19	X20	Y20	Z20	X21	Y21	Z21	X22	Y22	Z22	X23	Y23	Z23	X24	Y24	Z24	X25	Y25	Z25	X26	Y26	Z26	X27	Y27	Z27	X28	Y28	Z28	X29	Y29	Z29	X30	Y30	Z30	X31	Y31	Z31	X32	Y32	Z32	X33	Y33	Z33	X34	Y34	Z34	X35	Y35	Z35	

26	0.125	215.7897	1376.7423	-263.1889	342.7085	1308.8748	-233.3525	173.0705	1363.9927	-137.3293	199.5871	1387.4691	-102.3251	224.4716	1407.4222	-134.386	242.0536	1313.3921	-410.0632	280.1582	1300.7837	-441.1915	307.2432	1335.4021	-410.9002	378.2804	1112.9901	-199.8034	156.1911	1199.9822	-253.6226	235.1572	1368.2877	46.2591	201.4094	1282.4856	167.7854	158.1791	1324.2633	158.5535	114.4703	1341.7461	316.9062	111.9179	1366.7094	388.9574	108.7375	1314.8575	386.4144	94.6864	1372.3267	473.5219	97.8131	1324.8101	473.2519	345.9166	1105.2734	-417.1624	264.4172	978.0466	-407.2136	286.5624	974.7168	-458.6573	346.4055	826.9165	-472.2073	389.0739	757.4902	-444.5961	349.7636	752.3019	-467.0754	405.035	680.1884	-451.967	361.6301	675.8842	-469.2152	343.4468	906.2689	-63.3217	159.5444	929.1801	-155.7963	357.4904	889.8279	-324.3932	165.6233	922.8973	-259.1321	259.9348	971.9382	-41.8622	270.8182	937.0311	-367.2809	113.682	1331.0039	-208.5886	98.6342	1235.1832	-176.7216	129.6593	1366.9297	-69.6668
27	0.13	215.7914	1376.7402	-263.1974	342.695	1308.8989	-233.3422	173.2341	1363.8267	-137.3887	199.5603	1387.4799	-102.3105	224.4889	1407.3844	-134.3854	242.0594	1313.3971	-410.0795	280.1566	1300.7936	-441.2124	307.2738	1335.3957	-411.0466	378.2183	1113.0272	-199.7927	156.1779	1199.9735	-253.6155	235.1514	1368.2849	46.2674	201.3787	1282.5361	167.8023	158.1968	1324.273	158.5618	114.4147	1341.7164	316.9148	111.8825	1366.729	388.9639	108.6822	1314.7805	386.424	94.6361	1372.3391	473.5469	97.7934	1324.8094	473.2666	345.8564	1105.3279	-417.1232	264.4076	978.0546	-407.2058	286.5603	974.7451	-458.6441	346.3526	826.9472	-472.229	389.0382	757.4822	-444.5977	349.7187	752.3095	-467.0616	404.8953	680.2883	-452.0409	361.6039	675.8977	-469.2026	343.5119	906.508	-63.071	159.4119	929.2398	-155.6923	357.4395	889.8431	-324.3518	165.6353	922.892	-259.1084	259.8802	971.9403	-41.8009	270.684	937.1732	-367.3212	113.6952	1331.012	-208.5903	98.6462	1235.1909	-176.7137	129.6599	1366.9431	-69.6624
28	0.135	215.7628	1376.7473	-263.1718	342.765	1309.0574	-233.3898	173.2303	1363.8252	-137.3665	199.5326	1387.4889	-102.3081	224.4915	1407.3917	-134.3762	241.9807	1313.4762	-410.0305	280.1575	1300.8019	-441.2182	307.0816	1335.4955	-410.6476	378.2309	1113.0232	-199.7466	156.1658	1199.9825	-253.6206	235.1221	1368.3127	46.2919	201.333	1282.5778	167.8072	158.1828	1324.2842	158.5432	114.4018	1341.7307	316.9064	111.8319	1366.7242	388.9577	108.6549	1314.7939	386.4276	94.5908	1372.3274	473.5111	97.758	1324.8232	473.2532	345.9146	1105.3264	-417.1933	264.4034	978.0458	-407.2134	286.5464	974.7475	-458.6533	346.2869	827.0206	-472.2317	388.975	757.4693	-444.5849	349.681	752.3159	-467.0548	404.9023	680.3172	-452.0153	361.5513	675.9006	-469.2087	343.5008	906.5115	-63.0572	159.3732	929.2399	-155.6675	357.4776	889.8458	-324.3551	165.63	922.8899	-259.1279	259.8314	971.9596	-41.8194	270.623	937.1783	-367.2854	113.684	1331.0248	-208.558	98.6497	1235.1963	-176.7234	129.6594	1366.9303	-69.6442
29	0.14	215.7443	1376.73	-263.1821	342.7763	1309.0429	-233.3864	173.2036	1363.834	-137.3529	199.5227	1387.5278	-102.2907	224.4726	1407.3912	-134.3656	242.034	1313.4714	-410.0672	280.1092	1300.8939	-441.1716	307.2134	1335.4474	-411.0106	378.1566	1113.0008	-199.7499	156.1314	1199.9805	-253.5905	235.0797	1368.3561	46.287	201.3338	1282.585	167.8007	158.1673	1324.2562	158.5682	114.3877	1341.7251	316.8992	111.7865	1366.7195	388.9451	108.6688	1314.8435	386.4274	94.4947	1372.3102	473.4976	97.7207	1324.8071	473.2414	345.8318	1105.4052	-417.1616	264.401	978.046	-407.2095	286.5104	974.7423	-458.649	346.2527	827.0439	-472.2253	388.9615	757.4894	-444.5882	349.6396	752.3574	-467.0811	404.8674	680.1774	-451.9523	361.506	675.916	-469.2194	343.379	906.2953	-63.276	159.3612	929.235	-155.66	357.4847	889.8746	-324.3421	165.6137	922.8843	-259.1138	259.8005	971.9713	-41.8247	270.7199	937.1007	-367.2354	113.6841	1331.0395	-208.5393	98.6001	1235.1656	-176.6912	129.6546	1366.9382	-69.6072
30	0.145	215.7495	1376.7195	-263.1785	342.7496	1309.0354	-233.3752	173.2272	1363.837	-137.3552	199.4958	1387.5549	-102.2882	224.4735	1407.3865	-134.3778	242.0444	1313.3809	-410.0772	280.0897	1300.9036	-441.1987	307.2369	1335.3994	-411.0033	378.1798	1113.0441	-199.7403	156.1236	1199.9869	-253.5914	235.0477	1368.3944	46.3212	201.3005	1282.6261	167.8226	158.1755	1324.2731	158.5889	114.3691	1341.7037	316.8964	111.7371	1366.7192	388.9485	108.5972	1314.7623	386.4178	94.4656	1372.3016	473.5035	97.6796	1324.7987	473.2443	345.7905	1105.4579	-417.2021	264.3922	978.0603	-407.2121	286.4937	974.7775	-458.6426	346.2086	827.0479	-472.2405	388.9354	757.5143	-444.5929	349.5861	752.3649	-467.0992	404.7927	680.3097	-452.0052	361.4688	675.9249	-469.2369	343.3028	906.3218	-63.2197	159.4712	929.165	-155.7755	357.4582	889.8622	-324.3163	165.6157	922.8721	-259.1212	259.7463	972.0146	-41.8216	270.6203	937.2141	-367.2883	113.6856	1331.0405	-208.5175	98.6212	1235.2078	-176.6954	129.6485	1366.9573	-69.6038
31	0.15	215.7332	1376.7347	-263.1691	342.6245	1308.8993	-233.3322	173.2058	1363.842	-137.357	199.4798	1387.5751	-102.2867	224.5039	1407.3866	-134.3764	241.9361	1313.5464	-410.044	280.0792	1300.9396	-441.179	307.1166	1335.5424	-410.9907	378.1374	1113.0096	-199.7523	156.4563	1199.92	-253.6375	235.036	1368.3944	46.298	201.3073	1282.6147	167.8322	158.1536	1324.2462	158.603	114.3284	1341.6807	316.9026	111.6796	1366.7109	388.9535	108.5839	1314.7383	386.421	94.4067	1372.3074	473.5157	97.645	1324.788	473.256	345.754	1105.5079	-417.179	264.3688	978.0691	-407.2036	286.4638	974.7756	-458.6506	346.1544	827.0703	-472.2631	388.9089	757.5263	-444.6023	349.5745	752.368	-467.1006	404.766	680.2001	-451.9426	361.4159	675.9372	-469.2357	343.4245	906.5533	-62.9675	159.3277	929.215	-155.6519	357.4292	889.8862	-324.2944	165.6042	922.8823	-259.1408	259.698	972.0243	-41.8003	270.6448	937.1972	-367.276	113.6769	1331.0806	-208.5185	98.6146	1235.2402	-176.6997	129.6379	1366.9895	-69.6002
32	0.155	215.7317	1376.7358	-263.1609	342.7176	1309.0474	-233.3656	173.194	1363.848	-137.343	199.4577	1387.5817	-102.2822	224.4834	1407.3798	-134.3679	241.9355	1313.5359	-410.0203	280.0543	1300.9603	-441.1743	307.1491	1335.5012	-410.8866	378.1076	1113.0496	-199.7167	156.0979	1199.9967	-253.5859	234.9656	1368.4481	46.3252	201.314	1282.6318	167.8303	158.1819	1324.2585	158.6117	114.2983	1341.6675	316.917	111.6613	1366.6969	388.9625	108.5876	1314.8156	386.4345	94.3536	1372.2806	473.5223	97.6086	1324.7938	473.251	345.7396	1105.4804	-417.1776	264.3495	978.0915	-407.2076	286.459	974.7947	-458.6536	346.1438	827.0611	-472.2623	388.8535	757.5112	-444.6192	350.211	750.7084	-465.5606	404.6831	680.333	-452.0475	361.3901	675.9586	-469.2391	343.3742	906.5532	-62.9451	159.3097	929.2263	-155.6545	357.4488	889.9037	-324.2615	165.6149	922.8799	-259.1022	259.6383	972.061	-41.7607	270.5723	937.2314	-367.2615	113.6645	1331.1008	-208.52	98.6105	1235.2594	-176.6961	129.6296	1366.9963	-69.5939
33	0.16	215.7239	1376.7308	-263.1704	342.6937	1309.0592	-233.354	173.1804	1363.8517	-137.3311	199.4559	1387.5918	-102.2793	224.4646	1407.3557	-134.3635	242.1357	1313.5177	-409.7753	280.0392	1300.9523	-441.1742	307.0791	1335.5619	-410.8755	378.0779	1113.0293	-199.7242	156.0944	1200	-253.5875	234.9612	1368.4215	46.3195	201.5123	1282.7701	167.8072	158.2378	1324.3456	158.6182	114.2853	1341.6511	316.9085	111.6342	1366.6916	388.9754	108.5744	1314.7825	386.4088	94.3112	1372.2613	473.5242	97.565	1324.7812	473.2618	345.6861	1105.5571	-417.1929	264.3276	978.0824	-407.2151	286.4296	974.7929	-458.6457	346.1008	827.08	-472.2944	388.8204	757.538	-444.6441	350.0833	750.884	-465.6751	404.6958	680.257	-452.0038	361.3737	675.9569	-469.2596	343.3682	906.5477	-62.9186	159.3043	929.2123	-155.6395	357.4246	889.8972	-324.267	165.5602	922.8607	-259.0828	259.6148	972.0579	-41.7636	270.6102	937.2246	-367.2382	113.6645	1331.1279	-208.5158	98.5907	1235.2567	-176.7222	129.6113	1367.0216	-69.5995
34	0.165	215.7206	1376.7357	-263.172	342.678	1309.0598	-233.3471	173.1518	1363.8672	-137.3208	199.4408	1387.5966	-102.2752	224.485	1407.37	-134.3571	241.9474	1313.4941	-410.0711	279.9915	1300.9979	-441.1638	307.1138	1335.5346	-410.9627	378.0836	1113.0348	-199.7256	156.088	1200.0041	-253.5756	234.9144	1368.4409	46.3441	201.3436	1282.6679	167.8567	158.1446	1324.2108	158.6397	114.2639	1341.6291	316.9291	111.6185	1366.6854	388.9914	108.5226	1314.6992	386.4336	94.2618	1372.2555	473.5384	97.5175	1324.7465	473.2358	345.6824	1105.5175	-417.1702	264.2998	978.0685	-407.2048	286.426	974.7974	-458.6558	346.0649	827.0771	-472.2773	388.794	757.5517	-444.6671	350.0737	750.797	-465.7611	404.5841	680.3831	-452.102	361.3098	675.9767	-469.265	343.2144	906.3635	-63.1262	159.2913	929.2455	-155.6533	357.4419	889.8997	-324.2463	165.5592	922.874	-259.0741	259.595	972.0588	-41.746	270.5682	937.2257	-367.2018	113.6762	1331.1384	-208.5492	98.5953	1235.2939	-176.725	129.5853	1367.052	-69.596
35	0.17	215.72	1376.7629	-263.1612	342.6774	1309.0847	-233.345	173.2022	1363.478	-137.5244	199.4219	1387.5864	-102.2694	224.4752	1407.3768	-134.3493	242.1945	1313.465	-409.8546	280.0368	1300.9624	-441.1583	307.0523	1335.4763	-410.7457	378.0919	1113.051	-199.7258	156.0637	1199.9939	-253.5551	234.9096	1368.4026	46.3322	201.2721	1282.6853	167.9306	158.1288	1324.1768	158.6598	114.246	1341.6258	316.9397	111.6133	1366.6838	388.9911	108.4984	1314.6831	386.4271	94.2455	1372.2352	473.5575	97.4797	1324.7356	473.2424	345.6925	1105.5845	-417.2379	264.3035	978.1122	-407.2291	286.3752	974.8094	-458.6732	345.9934	827.1083	-472.3101	388.7788	757.5513	-444.6719	350.4805	750.5037	-465.5428	404.5994	680.4085	-452.1104	361.2826	675.9903	-469.3001	343.3191	906.5449	-62.8729	159.2736	929.2404	-155.6337	357.4555	889.912	-324.2176	165.5708	922.8798	-259.0851	259.5314	972.0549	-41.7468	270.5425	937.2519	-367.2141	113.6785	1331.1477	-208.5508	98.5894	1235.335	-176.7228	129.5806	1367.0658	-69.6138
